<svg xmlns="http://www.w3.org/2000/svg" xmlns:xlink="http://www.w3.org/1999/xlink" width="65" zoomAndPan="magnify" viewBox="0 0 48.75 48.749998" height="65" preserveAspectRatio="xMidYMid meet" version="1.0"><defs><clipPath id="e670a3f436"><path d="M 0 0 L 48.5 0 L 48.5 48.5 L 0 48.5 Z M 0 0 " clip-rule="nonzero"/></clipPath><clipPath id="003421d58c"><path d="M 24.25 22.199219 L 30.59375 22.199219 L 30.59375 28.542969 L 24.25 28.542969 Z M 24.25 22.199219 " clip-rule="nonzero"/></clipPath><clipPath id="2366fe23da"><path d="M 27.421875 22.199219 C 25.671875 22.199219 24.25 23.617188 24.25 25.371094 C 24.25 27.121094 25.671875 28.542969 27.421875 28.542969 C 29.171875 28.542969 30.59375 27.121094 30.59375 25.371094 C 30.59375 23.617188 29.171875 22.199219 27.421875 22.199219 Z M 27.421875 22.199219 " clip-rule="nonzero"/></clipPath><clipPath id="24bc5b61a7"><path d="M 6.0625 24 L 21 24 L 21 42 L 6.0625 42 Z M 6.0625 24 " clip-rule="nonzero"/></clipPath><clipPath id="34eeaa0df1"><path d="M 14.492188 24.703125 L 34.988281 24.703125 L 34.988281 46.839844 L 14.492188 46.839844 Z M 14.492188 24.703125 " clip-rule="nonzero"/></clipPath><clipPath id="a064f2d563"><path d="M 41 23 L 44.863281 23 L 44.863281 27 L 41 27 Z M 41 23 " clip-rule="nonzero"/></clipPath><clipPath id="6ff00caae7"><path d="M 38 20 L 44.863281 20 L 44.863281 29 L 38 29 Z M 38 20 " clip-rule="nonzero"/></clipPath><clipPath id="8f6fb844f7"><path d="M 42 23 L 44.863281 23 L 44.863281 26 L 42 26 Z M 42 23 " clip-rule="nonzero"/></clipPath><clipPath id="14df927d23"><path d="M 37 14 L 44.863281 14 L 44.863281 26 L 37 26 Z M 37 14 " clip-rule="nonzero"/></clipPath><clipPath id="713487bd97"><path d="M 41 24 L 44.863281 24 L 44.863281 27 L 41 27 Z M 41 24 " clip-rule="nonzero"/></clipPath><clipPath id="2df83ebf51"><path d="M 20.273438 40.785156 L 31.207031 40.785156 L 31.207031 46.839844 L 20.273438 46.839844 Z M 20.273438 40.785156 " clip-rule="nonzero"/></clipPath><clipPath id="32b722b82e"><path d="M 44 8 L 44.863281 8 L 44.863281 9 L 44 9 Z M 44 8 " clip-rule="nonzero"/></clipPath><clipPath id="4fa80f0ad4"><path d="M 40 1.324219 L 44 1.324219 L 44 5 L 40 5 Z M 40 1.324219 " clip-rule="nonzero"/></clipPath><clipPath id="d9434982dc"><path d="M 42.769531 6.832031 L 44.816406 6.832031 L 44.816406 8.828125 L 42.769531 8.828125 Z M 42.769531 6.832031 " clip-rule="nonzero"/></clipPath><clipPath id="b1e42b0351"><path d="M 41 1.324219 L 42 1.324219 L 42 3 L 41 3 Z M 41 1.324219 " clip-rule="nonzero"/></clipPath></defs><g clip-path="url(#e670a3f436)"><path fill="#ffffff" d="M 0 0 L 48.5 0 L 48.5 48.5 L 0 48.5 Z M 0 0 " fill-opacity="1" fill-rule="nonzero"/><path fill="#ffffff" d="M 0 0 L 48.5 0 L 48.5 48.5 L 0 48.5 Z M 0 0 " fill-opacity="1" fill-rule="nonzero"/></g><g clip-path="url(#003421d58c)"><g clip-path="url(#2366fe23da)"><path fill="#f4629a" d="M 24.25 22.199219 L 30.59375 22.199219 L 30.59375 28.542969 L 24.25 28.542969 Z M 24.25 22.199219 " fill-opacity="1" fill-rule="nonzero"/></g></g><path fill="#773325" d="M 19.710938 14.230469 C 19.695312 14.230469 19.679688 14.226562 19.667969 14.214844 C 19.648438 14.203125 19.1875 13.882812 18.746094 13.269531 C 18.484375 12.910156 18.285156 12.523438 18.152344 12.121094 C 17.988281 11.613281 17.925781 11.085938 17.972656 10.542969 C 18.042969 9.683594 18.84375 8.59375 19.546875 7.636719 C 19.6875 7.449219 19.816406 7.269531 19.941406 7.097656 C 20.261719 6.644531 20.789062 6.339844 21.460938 6.222656 C 21.964844 6.132812 22.367188 6.175781 22.386719 6.175781 C 22.425781 6.179688 22.457031 6.21875 22.453125 6.257812 C 22.449219 6.300781 22.410156 6.328125 22.367188 6.324219 C 22.367188 6.324219 21.964844 6.28125 21.484375 6.371094 C 21.042969 6.449219 20.4375 6.65625 20.0625 7.183594 C 19.9375 7.359375 19.808594 7.535156 19.667969 7.726562 C 18.972656 8.667969 18.1875 9.738281 18.121094 10.558594 C 18.023438 11.734375 18.46875 12.632812 18.863281 13.175781 C 19.289062 13.773438 19.75 14.089844 19.753906 14.09375 C 19.785156 14.117188 19.796875 14.164062 19.773438 14.199219 C 19.757812 14.21875 19.734375 14.230469 19.710938 14.230469 " fill-opacity="1" fill-rule="nonzero"/><path fill="#a09995" d="M 14.261719 29.105469 C 14.261719 29.105469 14.214844 29.65625 12 27.78125 C 11.503906 27.359375 11.011719 26.546875 10.761719 25.867188 C 10.59375 25.394531 10.539062 24.984375 10.675781 24.808594 C 10.949219 24.453125 13.988281 24.726562 13.988281 24.726562 C 13.988281 24.726562 14.195312 26.214844 14.261719 29.105469 " fill-opacity="1" fill-rule="nonzero"/><path fill="#f59473" d="M 31.703125 22.800781 L 32.628906 32.417969 C 32.628906 32.417969 34.972656 31.210938 36.40625 30.125 C 37.898438 28.996094 40.058594 27.117188 40.335938 26.585938 C 40.773438 25.738281 42.3125 27.851562 41.820312 28.347656 C 41.328125 28.84375 39.398438 32.03125 33.707031 35.90625 C 32.089844 37.007812 31.277344 37.125 30.449219 36.914062 C 29.617188 36.703125 27.902344 28.707031 27.902344 28.707031 L 31.703125 22.800781 " fill-opacity="1" fill-rule="nonzero"/><path fill="#e31d29" d="M 19.359375 10.539062 C 19.425781 10.765625 18.917969 14.273438 19.4375 16.578125 C 20.144531 19.726562 22.667969 22.625 22.667969 22.625 L 30.070312 21.414062 C 30.070312 21.414062 28.769531 18.046875 28.640625 16.910156 C 28.496094 15.652344 27.59375 12.117188 27.59375 12.117188 L 19.359375 10.539062 " fill-opacity="1" fill-rule="nonzero"/><path fill="#f59473" d="M 17.902344 20.320312 L 21.503906 19.261719 L 25.210938 19.625 L 27.421875 20.523438 L 26.078125 23.773438 L 18.335938 23.984375 L 17.902344 20.320312 " fill-opacity="1" fill-rule="nonzero"/><path fill="#773325" d="M 22.761719 3.417969 C 22.761719 3.417969 21.851562 3.644531 21.066406 3.921875 C 20.214844 4.226562 18.433594 6.25 18.480469 10.015625 C 18.5 11.449219 20.222656 14.515625 20.222656 14.515625 C 20.222656 14.515625 22.480469 6.894531 22.644531 6.316406 C 22.808594 5.738281 22.761719 3.417969 22.761719 3.417969 " fill-opacity="1" fill-rule="nonzero"/><g clip-path="url(#24bc5b61a7)"><path fill="#f59473" d="M 11.183594 24.71875 C 11.183594 24.71875 6.09375 29.507812 6.191406 30.328125 C 6.269531 31.023438 6.675781 34.722656 15.726562 41.65625 C 16.289062 42.089844 18.070312 41.285156 18.621094 40.914062 C 18.863281 40.75 19.148438 40.527344 19.363281 40.136719 C 19.777344 39.375 20.042969 38.328125 20.042969 38.328125 C 20.042969 38.328125 19.039062 37.585938 18.457031 38.070312 C 17.875 38.554688 17.101562 39.378906 16.664062 39.378906 C 16.460938 39.378906 15.304688 38.355469 13.867188 36.5 C 12.183594 34.328125 10.339844 31.308594 10.554688 31.101562 C 17.457031 24.507812 17.730469 26.671875 17.730469 26.671875 L 11.183594 24.71875 " fill-opacity="1" fill-rule="nonzero"/></g><path fill="#f59473" d="M 19.460938 22.644531 C 20.582031 19.410156 20.71875 17.328125 20.632812 15.324219 L 25.703125 14.21875 C 25.714844 14.460938 24.355469 18.214844 26.074219 22.640625 L 19.460938 22.644531 " fill-opacity="1" fill-rule="nonzero"/><path fill="#d16946" d="M 22.539062 18.734375 C 23.335938 18.738281 24.324219 18.261719 25.214844 17.453125 C 25.28125 15.601562 25.707031 14.355469 25.703125 14.21875 L 20.632812 15.324219 C 20.664062 16.011719 20.667969 16.707031 20.613281 17.453125 C 21.171875 18.164062 21.84375 18.734375 22.539062 18.734375 " fill-opacity="1" fill-rule="nonzero"/><path fill="#f59473" d="M 27.234375 10.5625 C 27.703125 14.265625 24.433594 17.441406 22.421875 17.433594 C 21.15625 17.429688 19.976562 15.484375 19.441406 14.324219 C 18.707031 12.730469 19.015625 11.695312 18.976562 10.855469 C 18.820312 7.421875 20.125 5.878906 21.222656 5.667969 C 26.140625 4.722656 26.800781 7.136719 27.234375 10.5625 " fill-opacity="1" fill-rule="nonzero"/><path fill="#a84a31" d="M 21.171875 14.5625 C 21.257812 14.632812 21.351562 14.695312 21.449219 14.75 C 21.496094 14.78125 21.546875 14.804688 21.597656 14.828125 C 21.648438 14.851562 21.699219 14.875 21.75 14.894531 C 21.800781 14.914062 21.855469 14.929688 21.90625 14.945312 C 21.960938 14.960938 22.015625 14.972656 22.070312 14.984375 C 22.121094 14.996094 22.175781 15.003906 22.230469 15.007812 C 22.257812 15.011719 22.285156 15.011719 22.3125 15.015625 C 22.34375 15.015625 22.371094 15.015625 22.398438 15.015625 C 22.621094 15.023438 22.84375 15 23.058594 14.945312 C 23.277344 14.894531 23.484375 14.8125 23.6875 14.710938 C 23.691406 14.707031 23.695312 14.710938 23.695312 14.714844 C 23.699219 14.71875 23.699219 14.722656 23.695312 14.722656 C 23.507812 14.851562 23.296875 14.949219 23.078125 15.015625 C 22.855469 15.082031 22.625 15.109375 22.394531 15.105469 C 22.339844 15.105469 22.28125 15.101562 22.222656 15.097656 C 22.164062 15.089844 22.109375 15.082031 22.050781 15.070312 C 21.9375 15.046875 21.828125 15.007812 21.722656 14.964844 C 21.667969 14.941406 21.617188 14.914062 21.566406 14.886719 C 21.515625 14.859375 21.46875 14.828125 21.421875 14.796875 C 21.328125 14.730469 21.238281 14.660156 21.160156 14.574219 C 21.15625 14.570312 21.15625 14.566406 21.160156 14.5625 C 21.164062 14.5625 21.167969 14.5625 21.171875 14.5625 " fill-opacity="1" fill-rule="nonzero"/><path fill="#602e22" d="M 25.722656 10.089844 C 25.722656 10.324219 25.28125 10.105469 24.738281 10.121094 C 24.199219 10.136719 23.699219 10.417969 23.695312 10.183594 C 23.6875 9.949219 23.746094 9.550781 24.667969 9.554688 C 25.210938 9.558594 25.71875 9.644531 25.722656 10.089844 " fill-opacity="1" fill-rule="nonzero"/><path fill="#602e22" d="M 19.398438 9.753906 C 19.390625 9.992188 19.839844 9.785156 20.378906 9.820312 C 20.921875 9.855469 21.40625 10.15625 21.421875 9.921875 C 21.4375 9.6875 21.394531 9.289062 20.472656 9.261719 C 19.929688 9.242188 19.417969 9.3125 19.398438 9.753906 " fill-opacity="1" fill-rule="nonzero"/><path fill="#d16946" d="M 22.425781 11.089844 C 22.410156 11.347656 22.359375 11.597656 22.300781 11.847656 C 22.273438 11.972656 22.238281 12.09375 22.199219 12.21875 C 22.183594 12.277344 22.164062 12.339844 22.140625 12.402344 C 22.121094 12.460938 22.097656 12.519531 22.078125 12.578125 C 22.03125 12.699219 21.992188 12.816406 21.957031 12.933594 C 21.925781 13.050781 21.898438 13.171875 21.894531 13.289062 C 21.894531 13.347656 21.902344 13.402344 21.917969 13.449219 C 21.925781 13.472656 21.9375 13.496094 21.949219 13.519531 C 21.964844 13.539062 21.984375 13.558594 22.003906 13.578125 C 22.085938 13.652344 22.203125 13.695312 22.324219 13.722656 C 22.332031 13.726562 22.339844 13.734375 22.335938 13.742188 C 22.335938 13.746094 22.332031 13.753906 22.324219 13.753906 C 22.257812 13.761719 22.191406 13.757812 22.125 13.746094 C 22.058594 13.734375 21.992188 13.710938 21.933594 13.667969 C 21.902344 13.648438 21.875 13.625 21.851562 13.597656 C 21.824219 13.566406 21.804688 13.535156 21.789062 13.5 C 21.757812 13.429688 21.753906 13.355469 21.75 13.289062 C 21.753906 13.148438 21.78125 13.019531 21.8125 12.894531 C 21.847656 12.769531 21.890625 12.648438 21.9375 12.527344 L 22.003906 12.351562 C 22.023438 12.292969 22.042969 12.234375 22.0625 12.171875 C 22.101562 12.054688 22.144531 11.933594 22.179688 11.8125 C 22.25 11.574219 22.316406 11.328125 22.367188 11.085938 L 22.367188 11.082031 C 22.371094 11.066406 22.386719 11.054688 22.402344 11.058594 C 22.417969 11.0625 22.425781 11.078125 22.425781 11.089844 " fill-opacity="1" fill-rule="nonzero"/><path fill="#d16946" d="M 22.496094 13.496094 C 22.503906 13.476562 22.511719 13.457031 22.527344 13.441406 C 22.539062 13.425781 22.550781 13.410156 22.566406 13.398438 C 22.59375 13.371094 22.632812 13.351562 22.667969 13.332031 C 22.6875 13.324219 22.707031 13.320312 22.726562 13.3125 C 22.746094 13.308594 22.765625 13.304688 22.785156 13.300781 C 22.828125 13.296875 22.867188 13.300781 22.90625 13.3125 C 22.941406 13.320312 22.960938 13.351562 22.953125 13.386719 C 22.945312 13.40625 22.929688 13.421875 22.90625 13.429688 L 22.898438 13.429688 C 22.871094 13.4375 22.84375 13.441406 22.816406 13.453125 C 22.789062 13.460938 22.765625 13.472656 22.738281 13.484375 C 22.714844 13.5 22.691406 13.511719 22.667969 13.527344 C 22.65625 13.535156 22.644531 13.542969 22.628906 13.550781 C 22.617188 13.558594 22.601562 13.566406 22.589844 13.570312 L 22.566406 13.578125 C 22.535156 13.585938 22.503906 13.570312 22.492188 13.539062 C 22.488281 13.523438 22.488281 13.511719 22.496094 13.496094 " fill-opacity="1" fill-rule="nonzero"/><path fill="#602e22" d="M 25.691406 11.234375 C 25.699219 11.230469 25.703125 11.21875 25.699219 11.210938 C 25.507812 10.863281 24.972656 10.652344 24.515625 10.691406 C 24.136719 10.722656 23.835938 10.941406 23.640625 11.195312 C 23.632812 11.203125 23.636719 11.210938 23.640625 11.21875 C 23.648438 11.222656 23.65625 11.222656 23.664062 11.21875 C 24.152344 10.894531 24.832031 10.902344 25.296875 11.253906 C 25.375 11.3125 25.476562 11.324219 25.5625 11.285156 L 25.691406 11.234375 " fill-opacity="1" fill-rule="nonzero"/><path fill="#602e22" d="M 25.097656 11.238281 C 25.097656 11.476562 24.90625 11.664062 24.671875 11.664062 C 24.4375 11.664062 24.246094 11.472656 24.246094 11.238281 C 24.246094 11.003906 24.4375 10.8125 24.671875 10.8125 C 24.910156 10.8125 25.097656 11.003906 25.097656 11.238281 " fill-opacity="1" fill-rule="nonzero"/><path fill="#602e22" d="M 19.535156 10.820312 C 19.527344 10.816406 19.523438 10.804688 19.527344 10.796875 C 19.746094 10.464844 20.300781 10.304688 20.753906 10.378906 C 21.125 10.441406 21.40625 10.691406 21.582031 10.957031 C 21.585938 10.964844 21.585938 10.972656 21.578125 10.980469 C 21.570312 10.984375 21.5625 10.984375 21.554688 10.980469 C 21.097656 10.613281 20.421875 10.5625 19.925781 10.875 C 19.84375 10.925781 19.742188 10.929688 19.65625 10.886719 L 19.535156 10.820312 " fill-opacity="1" fill-rule="nonzero"/><path fill="#602e22" d="M 21.152344 10.976562 C 21.152344 11.210938 20.960938 11.402344 20.726562 11.402344 C 20.492188 11.398438 20.300781 11.210938 20.304688 10.972656 C 20.304688 10.738281 20.496094 10.550781 20.730469 10.550781 C 20.964844 10.550781 21.15625 10.742188 21.152344 10.976562 " fill-opacity="1" fill-rule="nonzero"/><path fill="#f59473" d="M 26.488281 11.972656 C 26.488281 11.972656 27.148438 11.351562 27.71875 11.542969 C 28.292969 11.734375 28.394531 12.304688 28.363281 12.597656 C 28.332031 12.890625 28.164062 14.191406 27.210938 14.15625 C 26.261719 14.121094 26.074219 13.058594 26.074219 13.058594 L 26.488281 11.972656 " fill-opacity="1" fill-rule="nonzero"/><path fill="#d16946" d="M 27.226562 12.167969 C 27.296875 12.191406 27.363281 12.226562 27.425781 12.269531 C 27.484375 12.3125 27.542969 12.363281 27.589844 12.421875 C 27.636719 12.484375 27.679688 12.558594 27.695312 12.644531 C 27.714844 12.730469 27.699219 12.828125 27.65625 12.90625 C 27.617188 12.976562 27.566406 13.039062 27.503906 13.089844 C 27.441406 13.144531 27.375 13.179688 27.308594 13.210938 C 27.175781 13.269531 27.050781 13.304688 26.957031 13.421875 C 26.972656 13.351562 27.015625 13.28125 27.070312 13.230469 C 27.125 13.175781 27.1875 13.132812 27.242188 13.09375 C 27.296875 13.054688 27.351562 13.015625 27.394531 12.96875 C 27.4375 12.925781 27.472656 12.875 27.5 12.824219 C 27.523438 12.777344 27.53125 12.726562 27.523438 12.671875 C 27.515625 12.621094 27.496094 12.5625 27.464844 12.507812 C 27.40625 12.390625 27.320312 12.28125 27.226562 12.167969 " fill-opacity="1" fill-rule="nonzero"/><path fill="#ffffff" d="M 18.265625 20.207031 C 18.265625 20.207031 13.949219 21.355469 13.382812 21.710938 C 12.816406 22.066406 10.714844 24.734375 10.632812 24.832031 C 10.554688 24.929688 11.960938 25.347656 12.867188 26.527344 C 13.769531 27.707031 14.0625 29 14.191406 29.164062 C 14.320312 29.324219 15.773438 27.691406 16.277344 27.820312 C 16.777344 27.949219 20.007812 33.140625 20.476562 35.109375 C 20.945312 37.082031 29.722656 36.066406 29.722656 36.066406 C 29.722656 36.066406 24.738281 28.507812 30.789062 25.898438 C 31.738281 25.488281 31.703125 22.496094 31.703125 22.496094 L 26.910156 20.289062 C 26.910156 20.289062 26.25 21.953125 23.210938 22.097656 C 20.171875 22.246094 18.925781 21.113281 18.265625 20.207031 " fill-opacity="1" fill-rule="nonzero"/><path fill="#ff61a1" d="M 19.46875 19.878906 L 20.371094 19.199219 C 20.371094 19.199219 20.195312 24.808594 20.730469 26.585938 C 21.261719 28.363281 19.355469 26.148438 19.355469 26.148438 L 19.46875 19.878906 " fill-opacity="1" fill-rule="nonzero"/><path fill="#ffffff" d="M 33.058594 27.65625 C 32.027344 27.699219 30.199219 28.15625 28.964844 28.902344 C 28.578125 27.429688 28.191406 25.957031 27.804688 24.488281 C 27.730469 24.199219 27.65625 23.894531 27.757812 23.613281 C 27.910156 23.1875 28.40625 23.007812 28.839844 22.875 C 29.804688 22.585938 30.621094 21.300781 32.113281 22.960938 C 32.410156 23.289062 32.914062 26.488281 33.058594 27.65625 " fill-opacity="1" fill-rule="nonzero"/><g clip-path="url(#34eeaa0df1)"><path fill="#ff61a1" d="M 34.910156 44.574219 C 33.722656 45.125 32.480469 45.582031 31.199219 45.941406 C 29.101562 46.527344 26.890625 46.839844 24.609375 46.839844 C 23.148438 46.839844 21.714844 46.710938 20.328125 46.464844 C 19.378906 46.296875 18.449219 46.074219 17.542969 45.804688 C 15.640625 45.195312 14.546875 44.632812 14.546875 44.632812 C 14.546875 44.632812 17.632812 38.941406 19.6875 36.679688 C 20.464844 35.820312 20.417969 35.15625 20.226562 34.3125 C 19.914062 32.925781 18.972656 31.351562 18.894531 29.859375 C 18.773438 27.574219 19.371094 25.210938 19.371094 25.210938 C 19.371094 25.210938 27.757812 25.453125 29.746094 24.726562 C 29.746094 24.726562 31.882812 28.296875 30.152344 31.433594 C 28.664062 34.132812 29.753906 35.675781 29.875 36.074219 C 30.003906 36.488281 34.8125 44.410156 34.910156 44.574219 " fill-opacity="1" fill-rule="nonzero"/></g><path fill="#a09995" d="M 17.769531 28.242188 C 17.75 28.242188 17.730469 28.234375 17.71875 28.222656 C 17.171875 27.738281 16.597656 27.863281 16.574219 27.871094 C 16.535156 27.878906 16.496094 27.855469 16.484375 27.8125 C 16.476562 27.773438 16.5 27.734375 16.539062 27.722656 C 16.566406 27.71875 17.210938 27.570312 17.816406 28.113281 C 17.847656 28.140625 17.851562 28.1875 17.824219 28.21875 C 17.808594 28.234375 17.789062 28.242188 17.769531 28.242188 " fill-opacity="1" fill-rule="nonzero"/><path fill="#a09995" d="M 16.445312 27.679688 C 16.421875 27.679688 16.398438 27.667969 16.386719 27.648438 C 16.359375 27.613281 16.367188 27.566406 16.402344 27.542969 C 16.417969 27.53125 16.847656 27.222656 17.511719 27.207031 C 17.550781 27.203125 17.585938 27.238281 17.585938 27.277344 C 17.589844 27.320312 17.554688 27.355469 17.515625 27.355469 C 16.902344 27.371094 16.492188 27.660156 16.488281 27.664062 C 16.476562 27.671875 16.460938 27.679688 16.445312 27.679688 " fill-opacity="1" fill-rule="nonzero"/><path fill="#64bdba" d="M 25.261719 19.199219 C 25.261719 19.199219 25.257812 19.675781 25.496094 20.101562 C 26.191406 21.347656 27.828125 23.765625 28.824219 25.257812 C 30.046875 27.085938 29.84375 25.164062 29.84375 25.164062 C 29.84375 25.164062 29.882812 24.988281 29.742188 24.808594 C 29.417969 24.402344 28.765625 23.558594 27.953125 22.429688 C 27.121094 21.277344 26.402344 20.101562 26.402344 20.101562 L 25.261719 19.199219 " fill-opacity="1" fill-rule="nonzero"/><path fill="#773325" d="M 21.277344 6.429688 C 21.277344 6.429688 20.640625 7.390625 19.953125 8.078125 C 19.4375 8.59375 19.550781 8.851562 19.242188 9.453125 C 18.972656 9.980469 19.035156 10.941406 18.886719 11.117188 C 18.789062 11.230469 18.386719 10.292969 18.835938 8.402344 C 19.289062 6.511719 19.855469 5.039062 19.855469 5.039062 L 21.277344 6.429688 " fill-opacity="1" fill-rule="nonzero"/><path fill="#cc1b2d" d="M 20.914062 14.390625 C 20.902344 14.378906 20.914062 14.363281 20.929688 14.367188 C 21.039062 14.421875 21.277344 14.347656 21.648438 14.316406 C 22.171875 14.273438 22.171875 14.441406 22.359375 14.441406 C 22.542969 14.441406 22.714844 14.335938 22.882812 14.335938 C 23.054688 14.335938 23.679688 14.480469 23.828125 14.515625 C 23.957031 14.550781 24.085938 14.582031 24.207031 14.566406 C 24.226562 14.5625 24.238281 14.578125 24.226562 14.59375 C 24.003906 14.828125 23.371094 15.550781 23.097656 15.695312 C 22.804688 15.847656 22.273438 15.820312 22.03125 15.683594 C 21.792969 15.550781 21.289062 14.902344 21.175781 14.746094 C 21.09375 14.636719 20.984375 14.472656 20.914062 14.390625 " fill-opacity="1" fill-rule="nonzero"/><path fill="#f9c9c7" d="M 21.351562 14.578125 C 21.34375 14.574219 21.339844 14.585938 21.34375 14.589844 C 21.433594 14.710938 21.894531 15.277344 22.40625 15.304688 C 23.101562 15.34375 23.703125 14.835938 23.820312 14.730469 C 23.828125 14.722656 23.824219 14.714844 23.816406 14.714844 C 23.667969 14.738281 22.980469 14.832031 22.40625 14.789062 C 22.003906 14.757812 21.472656 14.613281 21.351562 14.578125 " fill-opacity="1" fill-rule="nonzero"/><path fill="#e31d29" d="M 25.253906 18.503906 C 25.253906 18.503906 25.253906 19.199219 25.253906 20.378906 C 25.253906 21.355469 25.394531 22.96875 23.734375 25.324219 C 21.964844 27.839844 21.261719 29.285156 21.457031 31.449219 C 21.59375 32.984375 22.894531 34.875 25.660156 34.246094 C 25.660156 34.246094 22.886719 32.652344 24.421875 30.382812 C 26.277344 27.640625 29.105469 25.601562 28.894531 21.390625 C 28.75 18.515625 25.410156 15.964844 25.410156 15.964844 L 25.253906 18.503906 " fill-opacity="1" fill-rule="nonzero"/><path fill="#773325" d="M 26.515625 9.453125 C 26.515625 9.453125 25.433594 11.488281 27.03125 14.363281 C 28.632812 17.242188 28.546875 18.941406 26.644531 21.25 C 24.527344 23.820312 21.320312 26.5 25.707031 31.742188 C 29.261719 35.992188 24.601562 37.117188 23.152344 37.429688 C 25.011719 39.226562 27.316406 38.527344 28.730469 37.933594 C 30.378906 37.238281 31.558594 35.832031 32.511719 33.488281 C 33.464844 31.144531 32.898438 28.75 33.042969 26.550781 C 33.191406 24.355469 32.820312 21.414062 32.300781 19.472656 C 31.785156 17.535156 30.976562 15.367188 30.832031 13.410156 C 30.683594 11.457031 29.230469 9.386719 29.085938 8.660156 C 28.941406 7.933594 28.132812 6.058594 27.761719 5.199219 C 27.386719 4.34375 26.515625 9.453125 26.515625 9.453125 " fill-opacity="1" fill-rule="nonzero"/><path fill="#773325" d="M 30.378906 14.300781 C 30.265625 13.910156 32.054688 23.996094 32.199219 23.195312 C 31.722656 25.871094 31.171875 26.972656 32.21875 28.167969 C 34.273438 30.511719 36.84375 29.71875 36.84375 29.71875 C 36.84375 29.71875 34.859375 28.925781 34.167969 27.082031 C 33.382812 25 34.398438 24.121094 34.585938 21.617188 C 34.769531 19.109375 30.378906 14.300781 30.378906 14.300781 " fill-opacity="1" fill-rule="nonzero"/><path fill="#773325" d="M 35.324219 20.539062 C 35.277344 18.90625 35.855469 16.300781 33.042969 14.460938 C 32.203125 13.914062 31.953125 13.421875 31.71875 12.601562 C 31.378906 11.40625 31.152344 10.808594 30.863281 9.628906 C 30.21875 7.015625 29.632812 5.523438 28.210938 4.164062 C 27.050781 3.054688 23.558594 2.015625 22.003906 3.632812 C 20.773438 4.914062 18.835938 5.328125 19.011719 9.265625 C 19.011719 9.265625 19.414062 6.265625 21.285156 6.429688 C 21.664062 6.460938 23.722656 7.882812 24.285156 8.707031 C 25.171875 10.015625 25.363281 13.417969 27.335938 14.515625 C 29.035156 15.460938 30.714844 17.582031 31.15625 18.160156 C 31.644531 19.472656 32.039062 20.59375 32.21875 21.234375 C 32.933594 23.742188 33.496094 27.183594 33.496094 27.183594 C 33.351562 25 35.371094 22.171875 35.324219 20.539062 " fill-opacity="1" fill-rule="nonzero"/><path fill="#773325" d="M 34.03125 28.421875 C 33.992188 28.421875 33.957031 28.390625 33.957031 28.351562 C 33.882812 27.265625 34.324219 26.289062 34.792969 25.257812 C 35.277344 24.183594 35.78125 23.074219 35.78125 21.703125 C 35.78125 19.695312 34.675781 17.882812 32.402344 16.171875 L 32.324219 16.109375 C 31.023438 15.132812 30.238281 14.539062 27.507812 13.644531 C 27.472656 13.632812 27.449219 13.589844 27.460938 13.550781 C 27.476562 13.511719 27.515625 13.488281 27.554688 13.5 C 30.308594 14.40625 31.144531 15.035156 32.414062 15.992188 L 32.492188 16.050781 C 33.742188 16.992188 34.660156 17.988281 35.222656 19.015625 C 35.695312 19.871094 35.933594 20.777344 35.933594 21.703125 C 35.933594 23.105469 35.421875 24.230469 34.929688 25.320312 C 34.46875 26.332031 34.035156 27.292969 34.105469 28.339844 C 34.109375 28.382812 34.078125 28.417969 34.035156 28.421875 C 34.035156 28.421875 34.03125 28.421875 34.03125 28.421875 " fill-opacity="1" fill-rule="nonzero"/><path fill="#964f44" d="M 21.277344 6.40625 C 21.242188 6.40625 21.210938 6.382812 21.203125 6.34375 C 20.953125 4.84375 21.523438 3.988281 21.898438 3.71875 C 21.929688 3.691406 21.976562 3.699219 22 3.734375 C 22.027344 3.769531 22.019531 3.816406 21.984375 3.839844 C 21.832031 3.949219 21.621094 4.199219 21.472656 4.578125 C 21.28125 5.070312 21.242188 5.65625 21.351562 6.320312 C 21.359375 6.359375 21.332031 6.398438 21.289062 6.40625 C 21.285156 6.40625 21.28125 6.40625 21.277344 6.40625 " fill-opacity="1" fill-rule="nonzero"/><path fill="#964f44" d="M 27.65625 12.417969 C 27.644531 12.417969 27.632812 12.414062 27.621094 12.410156 C 26.859375 12.015625 26.484375 11.167969 26.304688 10.527344 C 26.21875 10.226562 26.152344 9.910156 26.09375 9.609375 C 26.003906 9.171875 25.910156 8.722656 25.75 8.300781 C 25.195312 6.828125 23.773438 5.738281 22.207031 5.589844 C 22.164062 5.585938 22.136719 5.550781 22.140625 5.507812 C 22.144531 5.46875 22.179688 5.4375 22.222656 5.441406 C 23.015625 5.515625 23.785156 5.824219 24.449219 6.332031 C 25.113281 6.839844 25.609375 7.503906 25.890625 8.246094 C 26.054688 8.679688 26.148438 9.136719 26.238281 9.578125 C 26.300781 9.878906 26.363281 10.1875 26.449219 10.488281 C 26.621094 11.101562 26.976562 11.910156 27.691406 12.277344 C 27.726562 12.296875 27.742188 12.339844 27.722656 12.375 C 27.707031 12.402344 27.683594 12.417969 27.65625 12.417969 " fill-opacity="1" fill-rule="nonzero"/><path fill="#964f44" d="M 28.742188 8.542969 C 28.726562 8.542969 28.710938 8.539062 28.695312 8.527344 C 28.078125 8.09375 27.582031 7.5 27.257812 6.816406 C 27.179688 6.648438 27.113281 6.476562 27.046875 6.308594 C 26.949219 6.070312 26.851562 5.820312 26.722656 5.59375 C 26.132812 4.542969 24.847656 3.953125 23.667969 4.183594 C 23.625 4.191406 23.585938 4.164062 23.578125 4.125 C 23.570312 4.085938 23.597656 4.042969 23.636719 4.035156 C 24.238281 3.917969 24.890625 4.003906 25.476562 4.273438 C 26.066406 4.546875 26.554688 4.988281 26.855469 5.519531 C 26.988281 5.753906 27.085938 6.007812 27.183594 6.253906 C 27.25 6.417969 27.316406 6.589844 27.394531 6.753906 C 27.707031 7.414062 28.1875 7.984375 28.785156 8.40625 C 28.816406 8.429688 28.824219 8.476562 28.800781 8.511719 C 28.785156 8.53125 28.765625 8.542969 28.742188 8.542969 " fill-opacity="1" fill-rule="nonzero"/><path fill="#964f44" d="M 31.199219 14.167969 C 31.183594 14.167969 31.171875 14.164062 31.160156 14.15625 C 30.757812 13.914062 30.25 13.941406 29.761719 13.964844 L 29.6875 13.96875 C 29.160156 13.992188 28.566406 13.972656 28.164062 13.609375 C 28.132812 13.578125 28.128906 13.53125 28.15625 13.5 C 28.1875 13.472656 28.234375 13.46875 28.265625 13.496094 C 28.625 13.824219 29.183594 13.84375 29.679688 13.820312 L 29.753906 13.816406 C 30.265625 13.789062 30.792969 13.761719 31.238281 14.027344 C 31.273438 14.050781 31.285156 14.09375 31.261719 14.132812 C 31.246094 14.152344 31.222656 14.167969 31.199219 14.167969 " fill-opacity="1" fill-rule="nonzero"/><path fill="#964f44" d="M 27.675781 30.195312 C 27.652344 30.195312 27.625 30.183594 27.613281 30.160156 C 27.078125 29.222656 26.554688 28.203125 26.375 27.074219 C 26.285156 26.503906 26.292969 25.921875 26.410156 25.390625 C 26.535156 24.804688 26.777344 24.300781 27.128906 23.890625 C 27.15625 23.859375 27.203125 23.855469 27.234375 23.882812 C 27.265625 23.910156 27.269531 23.957031 27.242188 23.988281 C 26.59375 24.746094 26.332031 25.863281 26.523438 27.050781 C 26.699219 28.15625 27.214844 29.160156 27.742188 30.085938 C 27.761719 30.121094 27.75 30.164062 27.714844 30.1875 C 27.703125 30.191406 27.691406 30.195312 27.675781 30.195312 " fill-opacity="1" fill-rule="nonzero"/><path fill="#964f44" d="M 25.726562 29.125 C 25.707031 29.125 25.683594 29.117188 25.667969 29.097656 C 25.027344 28.28125 24.792969 27.148438 25.0625 26.140625 C 25.070312 26.101562 25.113281 26.078125 25.152344 26.089844 C 25.195312 26.097656 25.21875 26.140625 25.207031 26.179688 C 24.949219 27.140625 25.171875 28.222656 25.785156 29.003906 C 25.8125 29.039062 25.808594 29.085938 25.773438 29.109375 C 25.761719 29.121094 25.742188 29.125 25.726562 29.125 " fill-opacity="1" fill-rule="nonzero"/><path fill="#964f44" d="M 26.738281 7.921875 C 26.703125 7.921875 26.671875 7.898438 26.664062 7.863281 C 26.390625 6.699219 25.605469 5.65625 24.554688 5.078125 C 24.519531 5.058594 24.507812 5.015625 24.527344 4.976562 C 24.546875 4.941406 24.59375 4.929688 24.628906 4.949219 C 25.714844 5.546875 26.527344 6.625 26.8125 7.828125 C 26.820312 7.871094 26.796875 7.910156 26.753906 7.921875 C 26.75 7.921875 26.746094 7.921875 26.738281 7.921875 " fill-opacity="1" fill-rule="nonzero"/><path fill="#964f44" d="M 32.808594 27.046875 C 32.785156 27.046875 32.761719 27.035156 32.746094 27.011719 C 32.429688 26.535156 32.21875 25.972656 32.132812 25.386719 C 32.050781 24.796875 32.097656 24.199219 32.273438 23.652344 C 32.285156 23.613281 32.328125 23.589844 32.367188 23.601562 C 32.40625 23.613281 32.429688 23.65625 32.417969 23.695312 C 32.078125 24.761719 32.253906 26 32.871094 26.929688 C 32.894531 26.964844 32.886719 27.011719 32.851562 27.035156 C 32.839844 27.042969 32.824219 27.046875 32.808594 27.046875 " fill-opacity="1" fill-rule="nonzero"/><path fill="#964f44" d="M 19.441406 7.527344 C 19.433594 7.527344 19.425781 7.523438 19.417969 7.523438 C 19.378906 7.507812 19.359375 7.46875 19.371094 7.425781 C 19.625 6.648438 20.046875 5.90625 20.582031 5.285156 C 20.609375 5.253906 20.65625 5.25 20.6875 5.277344 C 20.71875 5.304688 20.722656 5.351562 20.695312 5.382812 C 20.171875 5.988281 19.761719 6.710938 19.511719 7.472656 C 19.503906 7.507812 19.472656 7.527344 19.441406 7.527344 " fill-opacity="1" fill-rule="nonzero"/><g clip-path="url(#a064f2d563)"><path fill="#d16946" d="M 41.078125 25.164062 L 43.097656 23.253906 C 43.097656 23.253906 43.117188 23.699219 43.277344 23.757812 C 43.460938 23.820312 44.25 23.921875 44.25 23.921875 L 43.792969 25.164062 L 42.664062 26.230469 L 41.078125 25.164062 " fill-opacity="1" fill-rule="nonzero"/></g><g clip-path="url(#6ff00caae7)"><path fill="#f59473" d="M 39.628906 27.382812 C 39.628906 27.382812 39.363281 27.046875 39.191406 26.453125 C 39.019531 25.855469 38.511719 24.707031 38.539062 24.371094 C 38.566406 24.035156 39.105469 23.636719 39.359375 23.519531 C 39.609375 23.402344 40.089844 23.171875 40.289062 23.257812 C 40.488281 23.34375 40.222656 23.941406 39.757812 24.175781 C 39.757812 24.175781 39.796875 24.496094 39.835938 24.828125 C 39.835938 24.828125 40.410156 24.65625 40.59375 24.335938 C 40.78125 24.015625 41.472656 21.730469 41.660156 21.351562 C 41.84375 20.972656 42.269531 20.347656 42.523438 20.363281 C 42.777344 20.375 42.589844 21.132812 42.523438 21.351562 C 42.457031 21.570312 41.871094 23.375 41.871094 23.375 C 41.871094 23.375 42.035156 24.625 42.191406 24.886719 C 42.324219 25.109375 43.035156 25.324219 43.035156 25.324219 C 43.035156 25.324219 43.574219 24.625 43.921875 24.976562 C 44.265625 25.324219 43.628906 26.445312 43.242188 26.867188 C 42.855469 27.289062 42.003906 28.203125 41.753906 28.335938 C 41.5 28.464844 39.628906 27.382812 39.628906 27.382812 " fill-opacity="1" fill-rule="nonzero"/></g><g clip-path="url(#8f6fb844f7)"><path fill="#f59473" d="M 43.980469 23.445312 C 44.390625 23.707031 44.367188 23.949219 43.980469 24.347656 C 43.597656 24.746094 43.238281 25.304688 42.695312 25.25 C 42.148438 25.199219 42.960938 24.375 43.171875 24.109375 C 43.382812 23.84375 43.703125 23.265625 43.980469 23.445312 " fill-opacity="1" fill-rule="nonzero"/></g><path fill="#77736f" d="M 41.0625 18.503906 L 42.339844 14.136719 C 42.339844 14.136719 42.453125 14.132812 42.527344 14.261719 C 42.714844 14.574219 41.414062 20.078125 41.414062 20.078125 L 41.0625 18.503906 " fill-opacity="1" fill-rule="nonzero"/><g clip-path="url(#14df927d23)"><path fill="#a09995" d="M 42.441406 24.828125 C 41.988281 24.640625 41.824219 24.164062 42.011719 23.714844 C 42.199219 23.265625 42.625 23.050781 43.101562 23.25 C 43.515625 23.425781 43.726562 23.902344 43.539062 24.351562 C 43.351562 24.800781 42.839844 24.992188 42.441406 24.828125 Z M 39.863281 24.257812 C 39.675781 24.707031 39.167969 24.898438 38.769531 24.734375 C 38.3125 24.546875 38.152344 24.070312 38.339844 23.621094 C 38.527344 23.171875 38.949219 22.957031 39.425781 23.15625 C 39.84375 23.332031 40.050781 23.808594 39.863281 24.257812 Z M 44.207031 25.671875 C 44.003906 25.617188 43.40625 25.386719 43.597656 24.882812 C 43.789062 24.382812 44.078125 23.890625 43.683594 23.378906 C 43.191406 22.734375 42.75 23.011719 42.375 22.300781 C 42.058594 21.703125 42.082031 21.726562 41.828125 21.078125 C 40.929688 18.808594 40.207031 14.101562 40.207031 14.101562 C 40.207031 14.101562 40.085938 13.980469 39.996094 14.3125 C 39.863281 14.8125 40.644531 19.84375 40.644531 19.84375 C 40.644531 19.84375 39.976562 21.589844 39.695312 22.128906 C 39.386719 22.714844 39.375 22.597656 38.957031 22.738281 C 38.527344 22.886719 37.929688 23.40625 37.996094 24.148438 C 38.050781 24.71875 38.617188 24.988281 38.617188 24.988281 C 39.167969 25.25 39.820312 24.949219 40.070312 24.421875 C 40.320312 23.898438 40.277344 23.652344 39.886719 23.039062 C 39.84375 22.972656 39.753906 22.855469 39.765625 22.769531 C 39.828125 22.347656 40.652344 21.191406 40.960938 21.140625 C 41.152344 21.105469 41.375 21.253906 41.585938 21.632812 C 41.800781 22.011719 42.191406 22.628906 42.207031 22.78125 C 42.222656 22.933594 41.800781 23.289062 41.699219 23.730469 C 41.59375 24.171875 41.816406 24.859375 42.335938 25.085938 C 42.753906 25.265625 42.875 25.148438 43.09375 25.207031 C 43.308594 25.265625 43.464844 25.613281 43.980469 25.820312 C 44.40625 25.988281 44.628906 25.871094 44.730469 25.753906 C 44.828125 25.632812 44.554688 25.761719 44.207031 25.671875 " fill-opacity="1" fill-rule="nonzero"/></g><path fill="#77736f" d="M 41.226562 20.0625 C 41.191406 20.144531 41.09375 20.1875 41.011719 20.152344 C 40.925781 20.117188 40.886719 20.019531 40.921875 19.9375 C 40.957031 19.851562 41.054688 19.8125 41.136719 19.847656 C 41.21875 19.882812 41.261719 19.980469 41.226562 20.0625 " fill-opacity="1" fill-rule="nonzero"/><path fill="#77736f" d="M 41.230469 21.207031 C 41.214844 21.207031 41.199219 21.199219 41.1875 21.191406 C 41.070312 21.101562 40.9375 21.085938 40.933594 21.085938 C 40.902344 21.082031 40.878906 21.058594 40.871094 21.027344 L 40.613281 19.984375 C 40.601562 19.945312 40.625 19.902344 40.667969 19.894531 C 40.707031 19.882812 40.746094 19.90625 40.757812 19.949219 L 41.003906 20.945312 C 41.066406 20.960938 41.175781 20.992188 41.277344 21.070312 C 41.3125 21.097656 41.316406 21.144531 41.292969 21.175781 C 41.277344 21.195312 41.253906 21.207031 41.230469 21.207031 " fill-opacity="1" fill-rule="nonzero"/><path fill="#f59473" d="M 15.898438 41.5625 C 16.191406 41.625 15.988281 41.792969 16.828125 41.671875 C 17.664062 41.546875 17.785156 41.46875 18.421875 41.097656 C 19.054688 40.726562 19.007812 40.1875 19.160156 40.015625 C 19.316406 39.847656 19.738281 39.347656 19.691406 38.929688 C 19.644531 38.511719 19.085938 37.859375 19.085938 37.859375 C 19.085938 37.859375 18.359375 38.371094 18.144531 38.511719 C 17.925781 38.648438 17.785156 38.929688 17.277344 39.222656 C 16.765625 39.515625 15.898438 41.5625 15.898438 41.5625 " fill-opacity="1" fill-rule="nonzero"/><path fill="#f59473" d="M 18.675781 37.972656 C 18.707031 37.933594 18.746094 37.910156 18.792969 37.898438 C 18.925781 37.859375 19.238281 37.765625 19.566406 37.613281 C 20 37.410156 20.28125 37.179688 20.621094 37.085938 C 20.960938 36.992188 22.011719 36.71875 22.183594 36.6875 C 22.355469 36.65625 22.457031 36.71875 22.449219 36.898438 C 22.441406 37.011719 22.246094 37.125 22.136719 37.15625 C 21.839844 37.238281 21.394531 37.503906 21.238281 37.550781 C 21.085938 37.597656 20.898438 37.738281 20.496094 37.859375 C 20.496094 37.859375 20.789062 37.90625 20.960938 37.921875 C 21.132812 37.9375 23.191406 38.414062 23.316406 38.589844 C 23.410156 38.722656 23.289062 38.84375 23.203125 38.871094 C 23.089844 38.902344 23.035156 38.914062 22.554688 38.851562 C 22.078125 38.789062 21.332031 38.605469 21.023438 38.636719 C 20.714844 38.664062 19.699219 39.050781 19.699219 39.050781 C 19.699219 39.050781 20.402344 39.039062 20.761719 39.054688 C 21.117188 39.070312 23.011719 39.578125 23.082031 39.71875 C 23.167969 39.886719 22.992188 39.984375 22.882812 39.980469 C 22.515625 39.972656 21.613281 39.890625 21.164062 39.84375 C 20.714844 39.796875 20.652344 39.730469 20.480469 39.78125 C 20.277344 39.839844 19.5625 39.878906 19.5625 39.878906 L 19.359375 40.21875 C 19.359375 40.21875 20.15625 40.414062 20.449219 40.523438 C 20.746094 40.632812 21.957031 40.90625 22.03125 41.058594 C 22.089844 41.1875 22.027344 41.328125 21.746094 41.359375 C 21.46875 41.390625 20.617188 41.214844 20.210938 41.066406 C 19.898438 40.953125 19.613281 40.953125 19.273438 40.90625 C 18.933594 40.859375 18.296875 40.679688 18.296875 40.679688 L 18.191406 38.53125 L 18.675781 37.972656 " fill-opacity="1" fill-rule="nonzero"/><path fill="#d16946" d="M 19.226562 38.199219 C 19.191406 38.199219 19.164062 38.179688 19.152344 38.148438 C 19.140625 38.105469 19.164062 38.066406 19.203125 38.054688 C 19.207031 38.050781 19.550781 37.957031 19.855469 37.890625 C 20.136719 37.832031 20.390625 37.792969 20.394531 37.792969 C 20.433594 37.785156 20.472656 37.816406 20.480469 37.855469 C 20.484375 37.898438 20.457031 37.933594 20.417969 37.941406 C 20.414062 37.941406 20.160156 37.980469 19.886719 38.039062 C 19.585938 38.101562 19.25 38.195312 19.246094 38.199219 C 19.238281 38.199219 19.230469 38.199219 19.226562 38.199219 " fill-opacity="1" fill-rule="nonzero"/><path fill="#d16946" d="M 18.933594 39.15625 C 18.902344 39.15625 18.871094 39.132812 18.863281 39.097656 C 18.851562 39.058594 18.875 39.019531 18.914062 39.007812 C 18.921875 39.003906 19.101562 38.957031 19.265625 38.941406 C 19.398438 38.925781 19.578125 38.941406 19.585938 38.941406 C 19.628906 38.941406 19.660156 38.980469 19.65625 39.019531 C 19.652344 39.0625 19.617188 39.09375 19.574219 39.089844 C 19.574219 39.089844 19.402344 39.078125 19.28125 39.089844 C 19.128906 39.105469 18.957031 39.152344 18.953125 39.152344 C 18.949219 39.152344 18.941406 39.15625 18.933594 39.15625 " fill-opacity="1" fill-rule="nonzero"/><path fill="#d16946" d="M 19.261719 40.261719 C 19.257812 40.261719 19.25 40.261719 19.246094 40.261719 L 18.859375 40.175781 C 18.816406 40.167969 18.792969 40.128906 18.800781 40.089844 C 18.808594 40.046875 18.847656 40.023438 18.890625 40.03125 L 19.277344 40.113281 C 19.316406 40.125 19.34375 40.164062 19.335938 40.203125 C 19.328125 40.238281 19.296875 40.261719 19.261719 40.261719 " fill-opacity="1" fill-rule="nonzero"/><path fill="#f59473" d="M 39.472656 23.464844 C 39.472656 23.464844 40.125 23.207031 40.351562 23.175781 C 40.578125 23.140625 40.609375 23.464844 40.480469 23.675781 C 40.351562 23.886719 39.753906 24.175781 39.753906 24.175781 L 39.472656 23.464844 " fill-opacity="1" fill-rule="nonzero"/><g clip-path="url(#713487bd97)"><path fill="#f59473" d="M 43.242188 24.96875 C 43.582031 24.808594 43.746094 24.679688 43.9375 24.96875 C 44.132812 25.257812 43.972656 25.582031 43.242188 25.875 C 42.515625 26.164062 42.242188 26.179688 42.0625 26.082031 C 41.886719 25.988281 42.015625 25.710938 42.628906 25.339844 C 43.242188 24.96875 43.242188 24.96875 43.242188 24.96875 " fill-opacity="1" fill-rule="nonzero"/></g><path fill="#f59473" d="M 43.023438 23.105469 C 43.238281 23.046875 43.496094 23.449219 43.402344 23.703125 C 43.3125 23.953125 42.925781 24.109375 42.660156 24.355469 C 42.398438 24.601562 42.042969 24.984375 41.804688 25 C 41.566406 25.015625 41.191406 24.886719 41.8125 24.160156 C 42.414062 23.457031 42.632812 23.210938 43.023438 23.105469 " fill-opacity="1" fill-rule="nonzero"/><path fill="#d16946" d="M 41.683594 25.144531 C 41.582031 25.144531 41.484375 25.113281 41.40625 25.015625 C 41.167969 24.710938 41.566406 24.324219 41.582031 24.308594 C 41.613281 24.277344 41.660156 24.28125 41.6875 24.308594 C 41.714844 24.339844 41.714844 24.386719 41.6875 24.414062 C 41.683594 24.417969 41.371094 24.722656 41.523438 24.921875 C 41.660156 25.09375 41.929688 24.914062 41.933594 24.914062 C 41.96875 24.890625 42.015625 24.898438 42.035156 24.933594 C 42.058594 24.96875 42.050781 25.015625 42.015625 25.039062 C 41.941406 25.089844 41.8125 25.144531 41.683594 25.144531 " fill-opacity="1" fill-rule="nonzero"/><path fill="#d16946" d="M 42.226562 26.246094 C 42.078125 26.246094 41.992188 26.203125 41.9375 26.160156 C 41.863281 26.09375 41.835938 25.996094 41.863281 25.890625 C 41.914062 25.660156 42.519531 25.289062 42.640625 25.21875 C 42.675781 25.199219 42.722656 25.210938 42.742188 25.246094 C 42.765625 25.28125 42.75 25.328125 42.714844 25.347656 C 42.4375 25.511719 42.035156 25.800781 42.007812 25.921875 C 41.996094 25.976562 42.003906 26.015625 42.039062 26.046875 C 42.074219 26.078125 42.230469 26.167969 42.746094 25.976562 C 43.410156 25.730469 43.570312 25.644531 43.570312 25.644531 C 43.609375 25.625 43.652344 25.636719 43.671875 25.675781 C 43.691406 25.710938 43.679688 25.757812 43.640625 25.777344 C 43.636719 25.78125 43.476562 25.863281 42.796875 26.117188 C 42.542969 26.210938 42.359375 26.246094 42.226562 26.246094 " fill-opacity="1" fill-rule="nonzero"/><path fill="#77736f" d="M 27.273438 40.4375 C 27.273438 40.4375 27.117188 40.261719 26.804688 40.390625 C 26.492188 40.523438 26.621094 40.679688 26.648438 40.757812 C 26.671875 40.835938 26.886719 41.132812 27.011719 41.410156 C 27.121094 41.648438 27.71875 41.28125 27.71875 41.28125 L 27.273438 40.4375 " fill-opacity="1" fill-rule="nonzero"/><path fill="#77736f" d="M 25.742188 40.519531 C 25.742188 40.519531 25.605469 40.324219 25.28125 40.421875 C 24.953125 40.515625 25.066406 40.683594 25.085938 40.765625 C 25.101562 40.847656 25.28125 41.164062 25.375 41.457031 C 25.457031 41.703125 26.089844 41.40625 26.089844 41.40625 L 25.742188 40.519531 " fill-opacity="1" fill-rule="nonzero"/><g clip-path="url(#2df83ebf51)"><path fill="#ef307e" d="M 31.199219 45.941406 C 29.101562 46.527344 26.890625 46.839844 24.609375 46.839844 C 23.148438 46.839844 21.714844 46.710938 20.328125 46.464844 L 21.578125 40.851562 C 21.578125 40.851562 22.886719 41.359375 25.625 41.359375 C 28.972656 41.359375 29.632812 40.859375 29.632812 40.859375 L 31.199219 45.941406 " fill-opacity="1" fill-rule="nonzero"/></g><path fill="#a09995" d="M 27.570312 39.984375 C 27.777344 39.960938 28.066406 40.089844 28.066406 40.273438 C 28.066406 40.457031 28.066406 41.082031 28.066406 41.082031 C 28.066406 41.082031 28.238281 42.023438 28.277344 42.414062 C 28.339844 43.070312 28.226562 45.109375 28.015625 45.105469 C 27.914062 45.105469 27.871094 44.332031 27.808594 43.539062 C 27.726562 42.542969 27.394531 41.382812 27.359375 41.210938 C 27.257812 40.695312 27.117188 40.3125 27.167969 40.195312 C 27.25 40.015625 27.464844 39.996094 27.570312 39.984375 " fill-opacity="1" fill-rule="nonzero"/><path fill="#a09995" d="M 26.046875 40.046875 C 26.253906 40.027344 26.539062 40.164062 26.535156 40.34375 C 26.53125 40.527344 26.515625 41.15625 26.515625 41.15625 C 26.515625 41.15625 26.664062 42.101562 26.695312 42.492188 C 26.746094 43.152344 26.585938 45.183594 26.371094 45.175781 C 26.269531 45.171875 26.246094 44.398438 26.199219 43.605469 C 26.144531 42.609375 25.839844 41.441406 25.808594 41.269531 C 25.71875 40.75 25.585938 40.363281 25.640625 40.246094 C 25.726562 40.070312 25.9375 40.058594 26.046875 40.046875 " fill-opacity="1" fill-rule="nonzero"/><path fill="#773325" d="M 34.28125 17.1875 C 34.261719 17.1875 34.246094 17.179688 34.230469 17.167969 C 33.535156 16.527344 33.453125 15.917969 33.304688 14.808594 C 33.238281 14.289062 33.152344 13.648438 32.980469 12.84375 C 32.765625 11.847656 31.863281 10.394531 30.371094 8.652344 C 29.242188 7.332031 28.164062 6.300781 28.152344 6.289062 C 28.121094 6.261719 28.121094 6.210938 28.148438 6.183594 C 28.179688 6.152344 28.226562 6.152344 28.253906 6.179688 C 28.265625 6.191406 29.351562 7.230469 30.484375 8.554688 C 31.152344 9.335938 31.707031 10.0625 32.132812 10.714844 C 32.667969 11.535156 33.003906 12.242188 33.125 12.8125 C 33.300781 13.621094 33.386719 14.269531 33.453125 14.789062 C 33.597656 15.863281 33.675781 16.453125 34.332031 17.058594 C 34.363281 17.085938 34.363281 17.132812 34.335938 17.164062 C 34.320312 17.179688 34.300781 17.1875 34.28125 17.1875 " fill-opacity="1" fill-rule="nonzero"/><g clip-path="url(#32b722b82e)"><path fill="#404649" d="M 44.636719 8.890625 C 44.632812 8.882812 44.632812 8.871094 44.640625 8.863281 C 44.648438 8.859375 44.660156 8.863281 44.667969 8.871094 C 44.671875 8.878906 44.671875 8.886719 44.664062 8.894531 C 44.65625 8.898438 44.644531 8.898438 44.636719 8.890625 " fill-opacity="1" fill-rule="nonzero"/></g><g clip-path="url(#4fa80f0ad4)"><path fill="#ff61a1" d="M 41.609375 1.558594 C 41.46875 1.402344 41.238281 1.320312 41.039062 1.394531 C 40.871094 1.457031 40.757812 1.625 40.714844 1.800781 C 40.671875 1.976562 40.691406 2.164062 40.722656 2.339844 C 40.839844 2.984375 41.128906 3.59375 41.546875 4.09375 C 41.59375 4.152344 41.679688 4.15625 41.734375 4.109375 C 42.210938 3.671875 42.632812 3.175781 42.984375 2.632812 C 43.136719 2.398438 43.222656 2.121094 43.097656 1.871094 C 42.980469 1.636719 42.722656 1.535156 42.46875 1.609375 C 42.339844 1.644531 42.082031 1.785156 41.957031 1.855469 C 41.917969 1.875 41.867188 1.867188 41.839844 1.832031 C 41.789062 1.769531 41.707031 1.664062 41.609375 1.558594 " fill-opacity="1" fill-rule="nonzero"/></g><g clip-path="url(#d9434982dc)"><path fill="#ff61a1" d="M 44.148438 7.277344 C 44.148438 7.121094 44.066406 6.957031 43.917969 6.898438 C 43.792969 6.847656 43.648438 6.878906 43.535156 6.953125 C 43.421875 7.027344 43.335938 7.136719 43.265625 7.253906 C 43.003906 7.664062 42.847656 8.140625 42.824219 8.628906 C 42.820312 8.683594 42.863281 8.730469 42.917969 8.730469 C 43.398438 8.734375 43.882812 8.679688 44.351562 8.5625 C 44.554688 8.511719 44.738281 8.40625 44.796875 8.203125 C 44.855469 8.015625 44.761719 7.828125 44.589844 7.738281 C 44.5 7.695312 44.289062 7.640625 44.183594 7.613281 C 44.152344 7.609375 44.128906 7.578125 44.132812 7.542969 C 44.136719 7.484375 44.144531 7.382812 44.148438 7.277344 " fill-opacity="1" fill-rule="nonzero"/></g><path fill="#ff61a1" d="M 39.40625 9.816406 C 39.292969 9.777344 39.15625 9.800781 39.078125 9.890625 C 39.011719 9.972656 39 10.085938 39.027344 10.183594 C 39.054688 10.285156 39.113281 10.371094 39.179688 10.449219 C 39.414062 10.738281 39.722656 10.960938 40.070312 11.09375 C 40.109375 11.109375 40.152344 11.089844 40.164062 11.050781 C 40.285156 10.703125 40.355469 10.339844 40.382812 9.976562 C 40.394531 9.816406 40.359375 9.65625 40.230469 9.566406 C 40.109375 9.480469 39.949219 9.503906 39.84375 9.609375 C 39.792969 9.660156 39.703125 9.800781 39.660156 9.871094 C 39.644531 9.890625 39.617188 9.898438 39.59375 9.890625 C 39.550781 9.871094 39.480469 9.84375 39.40625 9.816406 " fill-opacity="1" fill-rule="nonzero"/><g clip-path="url(#b1e42b0351)"><path fill="#f7bfd8" d="M 41.214844 2.667969 C 41.1875 2.667969 41.15625 2.648438 41.144531 2.621094 C 41.027344 2.3125 41.027344 1.960938 41.148438 1.65625 C 41.164062 1.617188 41.207031 1.601562 41.246094 1.617188 C 41.285156 1.628906 41.304688 1.675781 41.289062 1.714844 C 41.179688 1.984375 41.179688 2.292969 41.285156 2.566406 C 41.300781 2.601562 41.28125 2.648438 41.242188 2.660156 C 41.234375 2.664062 41.226562 2.667969 41.214844 2.667969 " fill-opacity="1" fill-rule="nonzero"/></g><path fill="#f7bfd8" d="M 41.445312 3.515625 C 41.417969 3.515625 41.390625 3.5 41.378906 3.46875 L 41.175781 2.996094 C 41.160156 2.957031 41.179688 2.914062 41.21875 2.894531 C 41.253906 2.878906 41.300781 2.898438 41.316406 2.9375 L 41.515625 3.410156 C 41.53125 3.449219 41.515625 3.492188 41.476562 3.511719 C 41.464844 3.511719 41.457031 3.515625 41.445312 3.515625 " fill-opacity="1" fill-rule="nonzero"/><path fill="#f7bfd8" d="M 39.535156 10.585938 C 39.515625 10.585938 39.5 10.582031 39.484375 10.570312 C 39.328125 10.433594 39.222656 10.238281 39.199219 10.03125 C 39.195312 9.992188 39.222656 9.953125 39.265625 9.949219 C 39.304688 9.945312 39.34375 9.972656 39.347656 10.015625 C 39.367188 10.183594 39.453125 10.34375 39.582031 10.453125 C 39.613281 10.480469 39.617188 10.527344 39.59375 10.558594 C 39.578125 10.578125 39.554688 10.585938 39.535156 10.585938 " fill-opacity="1" fill-rule="nonzero"/><path fill="#f7bfd8" d="M 39.941406 10.925781 C 39.921875 10.925781 39.902344 10.921875 39.886719 10.90625 L 39.710938 10.734375 C 39.683594 10.707031 39.679688 10.660156 39.710938 10.628906 C 39.738281 10.601562 39.785156 10.597656 39.816406 10.628906 L 39.992188 10.796875 C 40.023438 10.828125 40.023438 10.875 39.996094 10.90625 C 39.980469 10.917969 39.960938 10.925781 39.941406 10.925781 " fill-opacity="1" fill-rule="nonzero"/><path fill="#f7bfd8" d="M 43.320312 7.753906 C 43.308594 7.753906 43.296875 7.75 43.285156 7.742188 C 43.246094 7.71875 43.234375 7.675781 43.257812 7.640625 C 43.394531 7.402344 43.59375 7.195312 43.828125 7.046875 C 43.859375 7.027344 43.90625 7.035156 43.929688 7.070312 C 43.953125 7.105469 43.941406 7.152344 43.90625 7.175781 C 43.695312 7.308594 43.515625 7.496094 43.386719 7.714844 C 43.371094 7.738281 43.347656 7.753906 43.320312 7.753906 " fill-opacity="1" fill-rule="nonzero"/><path fill="#f7bfd8" d="M 43.109375 8.335938 C 43.101562 8.335938 43.09375 8.332031 43.085938 8.332031 C 43.046875 8.316406 43.027344 8.273438 43.039062 8.234375 L 43.144531 7.925781 C 43.15625 7.886719 43.199219 7.867188 43.238281 7.878906 C 43.277344 7.890625 43.300781 7.933594 43.285156 7.972656 L 43.183594 8.285156 C 43.171875 8.316406 43.140625 8.335938 43.109375 8.335938 " fill-opacity="1" fill-rule="nonzero"/></svg>