<svg xmlns="http://www.w3.org/2000/svg" xmlns:xlink="http://www.w3.org/1999/xlink" width="40" zoomAndPan="magnify" viewBox="0 0 30 30.000001" height="40" preserveAspectRatio="xMidYMid meet" version="1.0"><defs><clipPath id="a632a303d2"><path d="M 12.21875 10.390625 L 18.027344 10.390625 L 18.027344 16.195312 L 12.21875 16.195312 Z M 12.21875 10.390625 " clip-rule="nonzero"/></clipPath><clipPath id="9d48247b46"><path d="M 2.742188 1.96875 L 26.695312 1.96875 L 26.695312 27.375 L 2.742188 27.375 Z M 2.742188 1.96875 " clip-rule="nonzero"/></clipPath></defs><path fill="#000000" d="M 15.125 11.824219 C 14.480469 11.824219 13.960938 12.347656 13.960938 12.988281 C 13.960938 13.628906 14.480469 14.148438 15.125 14.148438 C 15.765625 14.148438 16.285156 13.628906 16.285156 12.988281 C 16.285156 12.347656 15.765625 11.824219 15.125 11.824219 " fill-opacity="1" fill-rule="nonzero"/><g clip-path="url(#a632a303d2)"><path fill="#000000" d="M 17.050781 15.296875 C 16.792969 14.699219 16.253906 14.324219 15.121094 14.324219 C 13.988281 14.324219 13.449219 14.695312 13.191406 15.292969 C 12.667969 14.789062 12.339844 14.078125 12.339844 13.292969 C 12.339844 11.757812 13.585938 10.511719 15.125 10.511719 C 16.660156 10.511719 17.90625 11.757812 17.90625 13.292969 C 17.90625 14.078125 17.578125 14.789062 17.050781 15.296875 Z M 15.125 10.390625 C 13.519531 10.390625 12.21875 11.691406 12.21875 13.292969 C 12.21875 14.128906 12.574219 14.886719 13.144531 15.414062 C 13.664062 15.898438 14.359375 16.195312 15.125 16.195312 C 15.886719 16.195312 16.582031 15.898438 17.097656 15.417969 C 17.667969 14.886719 18.027344 14.132812 18.027344 13.292969 C 18.027344 11.691406 16.726562 10.390625 15.125 10.390625 " fill-opacity="1" fill-rule="nonzero"/></g><path fill="#d87093" d="M 14.675781 8.179688 C 12.039062 8.179688 9.902344 10.421875 9.902344 13.191406 C 9.902344 15.960938 12.039062 18.203125 14.675781 18.203125 C 17.3125 18.203125 19.445312 15.960938 19.445312 13.191406 C 19.445312 10.421875 17.3125 8.179688 14.675781 8.179688 " fill-opacity="1" fill-rule="nonzero"/><g clip-path="url(#9d48247b46)"><path fill="#d87093" d="M 22.601562 23.164062 C 21.542969 20.585938 19.324219 18.96875 14.667969 18.96875 C 10.015625 18.96875 7.796875 20.578125 6.738281 23.152344 C 4.585938 20.96875 3.242188 17.90625 3.242188 14.511719 C 3.242188 7.882812 8.363281 2.507812 14.675781 2.507812 C 20.988281 2.507812 26.105469 7.882812 26.105469 14.511719 C 26.105469 17.910156 24.761719 20.980469 22.601562 23.164062 Z M 14.675781 1.980469 C 8.085938 1.980469 2.742188 7.589844 2.742188 14.511719 C 2.742188 18.132812 4.203125 21.394531 6.542969 23.683594 C 8.671875 25.769531 11.53125 27.042969 14.675781 27.042969 C 17.8125 27.042969 20.667969 25.773438 22.796875 23.691406 C 25.140625 21.40625 26.605469 18.136719 26.605469 14.511719 C 26.605469 7.589844 21.265625 1.980469 14.675781 1.980469 " fill-opacity="1" fill-rule="nonzero"/></g></svg>