<svg xmlns="http://www.w3.org/2000/svg" xmlns:xlink="http://www.w3.org/1999/xlink" width="60" zoomAndPan="magnify" viewBox="0 0 45 44.999999" height="60" preserveAspectRatio="xMidYMid meet" version="1.0"><defs><clipPath id="1f6d4d53f6"><path d="M 3.375 4.5 L 40.875 4.5 L 40.875 42 L 3.375 42 Z M 3.375 4.5 " clip-rule="nonzero"/></clipPath></defs><g clip-path="url(#1f6d4d53f6)"><path fill="#d87093" d="M 21.9375 4.5 C 11.703125 4.5 3.375 12.828125 3.375 23.0625 C 3.375 33.296875 11.703125 41.625 21.9375 41.625 C 32.171875 41.625 40.5 33.296875 40.5 23.0625 C 40.5 12.828125 32.171875 4.5 21.9375 4.5 Z M 21.9375 9.34375 C 25.054688 9.34375 27.585938 11.875 27.585938 14.992188 C 27.585938 18.105469 25.054688 20.640625 21.9375 20.640625 C 18.820312 20.640625 16.289062 18.105469 16.289062 14.992188 C 16.289062 11.875 18.820312 9.34375 21.9375 9.34375 Z M 31.621094 33.554688 L 12.253906 33.554688 C 11.808594 33.554688 11.445312 33.191406 11.445312 32.746094 C 11.445312 26.960938 16.152344 22.253906 21.9375 22.253906 C 27.722656 22.253906 32.429688 26.960938 32.429688 32.746094 C 32.429688 33.191406 32.066406 33.554688 31.621094 33.554688 Z M 31.621094 33.554688 " fill-opacity="1" fill-rule="nonzero"/></g></svg>