<svg xmlns="http://www.w3.org/2000/svg" xmlns:xlink="http://www.w3.org/1999/xlink" width="60" zoomAndPan="magnify" viewBox="0 0 45 44.999999" height="60" preserveAspectRatio="xMidYMid meet" version="1.0"><defs><clipPath id="05e32509ce"><path d="M 3.601562 4.5 L 40.351562 4.5 L 40.351562 37 L 3.601562 37 Z M 3.601562 4.5 " clip-rule="nonzero"/></clipPath><clipPath id="7b52338bc2"><path d="M 11 28 L 34 28 L 34 41.25 L 11 41.25 Z M 11 28 " clip-rule="nonzero"/></clipPath></defs><g clip-path="url(#05e32509ce)"><path fill="#d87093" d="M 9.027344 36.011719 C 10.027344 33.523438 11.542969 31.371094 13.472656 29.707031 C 14.636719 28.707031 15.902344 27.925781 17.238281 27.375 C 15.207031 25.898438 13.886719 23.503906 13.886719 20.808594 C 13.886719 16.332031 17.53125 12.6875 22.007812 12.6875 C 26.484375 12.6875 30.128906 16.332031 30.128906 20.808594 C 30.128906 23.496094 28.8125 25.882812 26.796875 27.363281 C 28.429688 28.023438 29.957031 29.023438 31.296875 30.328125 C 32.898438 31.890625 34.183594 33.832031 35.0625 36.011719 C 38.414062 32.671875 40.492188 28.050781 40.492188 22.945312 C 40.492188 12.757812 32.230469 4.5 22.046875 4.5 C 11.859375 4.5 3.601562 12.757812 3.601562 22.945312 C 3.601562 28.050781 5.675781 32.671875 9.027344 36.011719 " fill-opacity="1" fill-rule="nonzero"/></g><path fill="#d87093" d="M 27.625 20.808594 C 27.625 17.710938 25.105469 15.191406 22.007812 15.191406 C 18.910156 15.191406 16.390625 17.710938 16.390625 20.808594 C 16.390625 23.90625 18.910156 26.425781 22.007812 26.425781 C 25.105469 26.425781 27.625 23.90625 27.625 20.808594 " fill-opacity="1" fill-rule="nonzero"/><g clip-path="url(#7b52338bc2)"><path fill="#d87093" d="M 29.550781 32.121094 C 27.4375 30.0625 24.773438 28.929688 22.046875 28.929688 C 19.535156 28.929688 17.136719 29.855469 15.105469 31.605469 C 13.28125 33.179688 11.886719 35.296875 11.050781 37.757812 C 14.121094 40.039062 17.925781 41.390625 22.046875 41.390625 C 26.164062 41.390625 29.96875 40.039062 33.039062 37.757812 C 32.292969 35.566406 31.097656 33.632812 29.550781 32.121094 " fill-opacity="1" fill-rule="nonzero"/></g></svg>