<svg xmlns="http://www.w3.org/2000/svg" xmlns:xlink="http://www.w3.org/1999/xlink" width="60" zoomAndPan="magnify" viewBox="0 0 45 44.999999" height="60" preserveAspectRatio="xMidYMid meet" version="1.0"><defs><clipPath id="b2106b18cf"><path d="M 4.5 3.125 L 41.25 3.125 L 41.25 42 L 4.5 42 Z M 4.5 3.125 " clip-rule="nonzero"/></clipPath></defs><path fill="#d87093" d="M 22.929688 12.714844 C 18.859375 12.714844 15.558594 16.179688 15.558594 20.457031 C 15.558594 24.734375 18.859375 28.199219 22.929688 28.199219 C 27 28.199219 30.300781 24.734375 30.300781 20.457031 C 30.300781 16.179688 27 12.714844 22.929688 12.714844 " fill-opacity="1" fill-rule="nonzero"/><g clip-path="url(#b2106b18cf)"><path fill="#d87093" d="M 35.171875 35.859375 C 33.539062 31.875 30.113281 29.382812 22.917969 29.382812 C 15.734375 29.382812 12.304688 31.867188 10.671875 35.84375 C 7.34375 32.472656 5.273438 27.738281 5.273438 22.496094 C 5.273438 12.253906 13.175781 3.953125 22.929688 3.953125 C 32.679688 3.953125 40.585938 12.253906 40.585938 22.496094 C 40.585938 27.746094 38.507812 32.488281 35.171875 35.859375 Z M 22.929688 3.140625 C 12.75 3.140625 4.5 11.808594 4.5 22.496094 C 4.5 28.089844 6.757812 33.125 10.367188 36.660156 C 13.65625 39.882812 18.074219 41.855469 22.929688 41.855469 C 27.773438 41.855469 32.183594 39.890625 35.472656 36.675781 C 39.09375 33.140625 41.359375 28.097656 41.359375 22.496094 C 41.359375 11.808594 33.105469 3.140625 22.929688 3.140625 " fill-opacity="1" fill-rule="nonzero"/></g></svg>